<svg width="1920" height="1080" viewBox="0 0 1920 1080" fill="none" xmlns="http://www.w3.org/2000/svg">
<g clip-path="url(#clip0_313_1011)">
<rect width="1920" height="1080" fill="url(#paint0_linear_313_1011)"/>
<path d="M6 633C74.5 625.333 245.9 614.6 383.5 633L388.18 633.626C556.16 656.09 592.526 660.954 758 655.999C925 650.999 943 635.999 1056 671.499C1169 706.999 1145.5 678.999 1258.5 655.999C1371.5 633 1418 655.999 1520.5 655.999C1623 655.999 1802.5 596.999 1879.5 601.999C1898.84 603.256 1911.13 603.887 1918.5 604.111V601.999C1927.19 603.143 1934.59 604.6 1918.5 604.111V1079H6V633Z" fill="#A1045F"/>
<path d="M1041 783.5C1007 790.7 994.833 807.833 993 815.5V930L1584 939.5C1582.5 860 1576.9 697.8 1566.5 685C1553.5 669 1558.5 634.5 1547 641.5C1535.5 648.5 1516.5 633.5 1503.5 641.5C1490.5 649.5 1506 684 1481 724C1456 764 1410 751.5 1390.5 756C1371 760.5 1341 692 1313.5 701C1286 710 1285 689.5 1274.5 692C1264 694.5 1255.5 678 1256.5 654C1257.5 630 1255.5 601.5 1237 601.5C1218.5 601.5 1197.5 594.5 1185 601.5C1172.5 608.5 1178.5 608.5 1168 611.5C1159.6 613.9 1146.5 611.5 1144 601.5C1140.5 594.5 1144.2 585.9 1135 591.5C1123.5 598.5 1138.5 640.5 1126 660C1113.5 679.5 1137.5 735.5 1126 762C1114.5 788.5 1083.5 774.5 1041 783.5Z" fill="#81034C"/>
<path d="M1137 862.5C1160.6 878.9 1245.5 969.5 1258 975H233.5V486C242.5 469.5 264.9 434.1 282.5 424.5C304.5 412.5 352 398 379 407C406 415.999 472 424.5 475.5 383C479 341.499 489 325 518 313.5C547 302 654 325 664.5 325C675 325 725.5 321.5 736 333C746.5 344.5 729.5 354.5 745 354C757.4 353.6 761.834 356.833 762.5 358.5C766.834 361.166 776.7 367.1 781.5 369.5C787.5 372.5 796.5 380.5 801 398C804.6 412 811.834 421.5 815 424.5C817.834 424.5 825.9 426.9 835.5 436.5C847.5 448.5 852 469 849.5 486C847 503 853 515.5 862.5 522.5C872 529.5 863 574 862.5 598.5C862 623 861.5 638.5 867 658.5C872.5 678.5 888.5 681.5 896 685.5C903.5 689.5 903 681 916 687.5C929 694 930.5 669.5 934 668.5C937.499 667.5 935 640.5 936 638.5C936.8 636.9 936.333 631.833 936 629.5C936 628.666 935.6 625.8 934 621C931.999 615 936 601.5 936 591.5C936 581.5 935 567.5 936 562.5C937 557.5 941.5 555.5 943 549C944.5 542.499 945.5 545 950 544C953.6 543.2 957.166 551.333 958.5 555.5L960 574C961.833 577.5 966 587.3 968 598.5C970.5 612.5 973 614.5 974 624C975 633.5 976 634 979.5 638C983 642 983.5 669 986 676C988.5 683 997.5 681 997.5 683.5C997.5 686 999.5 687 1004 687.5C1007.6 687.9 1010.17 695.333 1011 699C1010.67 718.833 1010.2 762.4 1011 778C1012 797.5 1007.5 786.5 1027.5 798C1047.5 809.5 1020 804 1055.5 829C1091 854 1107.5 842 1137 862.5Z" fill="#610239"/>
<path d="M1015.44 943.743C1010.64 953.799 987.149 969.384 976 975.92V1082H1920V351C1890.88 373.791 1831.34 427.117 1826.15 458.086C1819.66 496.798 1742.78 527.466 1723.31 527.466C1704.31 527.466 1662.48 523.635 1634.96 521.114L1632.96 520.93C1610.99 518.919 1597.85 529.142 1594.02 534.504L1573.55 585.785L1555.58 681.81C1521.63 703.429 1558.08 788.896 1514.64 791.41C1471.21 793.924 1483.19 836.155 1451.74 845.707C1426.58 853.35 1403.32 829.787 1394.83 817.05C1385.35 792.416 1376.86 649.131 1371.87 633.043C1367.88 620.173 1353.9 618.631 1347.41 619.469L1324.45 628.519L1316.46 654.159C1288 670.247 1318.46 741.638 1292.5 762.25C1266.54 782.863 1243.08 776.327 1235.59 776.327C1228.1 776.327 1232.09 791.913 1220.61 796.94C1209.13 801.968 1221.11 833.641 1216.12 841.685C1211.13 849.729 1206.63 846.21 1197.65 845.707C1188.66 845.205 1158.71 887.939 1154.22 890.452C1149.72 892.966 1142.74 894.474 1132.75 895.48C1122.77 896.485 1110.79 914.081 1105.79 913.578C1100.8 913.076 1096.31 922.628 1088.32 922.628C1080.33 922.628 1075.34 924.136 1064.36 925.142C1053.38 926.147 1059.37 934.191 1040.4 935.699C1025.22 936.906 1017.43 941.565 1015.44 943.743Z" fill="#400226"/>
<path d="M180.689 389.436C162.27 374.157 52.555 383.07 0 389.436V1082H1484.05C1487.89 1078.15 1488.66 1069.74 1461.03 1066.92C1426.49 1063.4 1211.27 1046.82 1181.24 1041.79C1157.21 1037.77 1119.51 1011.64 1103.66 999.073C1051.1 990.027 995.042 946.804 975.521 945.297C956.001 943.789 946.491 940.271 922.966 922.178C899.441 904.084 890.933 918.659 867.909 909.11C844.884 899.561 850.891 893.028 830.369 873.929C813.952 858.651 758.127 827.691 732.266 814.121C733.268 783.799 733.668 721.445 727.261 714.609C719.253 706.065 727.762 695.511 727.261 687.972C726.861 681.941 708.075 644.582 698.731 626.657C693.893 625.149 680.312 620.827 664.696 615.6C649.079 610.373 650.848 592.983 653.684 584.942L592.12 578.911C576.503 582.53 549.175 577.403 547.573 571.372C545.571 563.833 549.311 557.3 547.073 557.3C536.061 557.3 544.07 534.181 541.066 532.171L523.047 523.627C463.485 527.145 469.224 511.526 468.49 504.528C467.489 494.979 461.483 483.42 413.933 484.425C383.804 485.062 369.387 473.368 329.345 463.819C289.303 454.27 215.225 467.839 192.201 454.27C169.177 440.7 203.713 408.534 180.689 389.436Z" fill="#200113"/>
<circle cx="1121" cy="168" r="1" fill="#FED1EB"/>
<circle cx="501" cy="134" r="1" fill="#FED1EB"/>
<circle cx="1191.92" cy="504.085" r="1" transform="rotate(43.9725 1191.92 504.085)" fill="#FED1EB"/>
<circle cx="1729.72" cy="347.797" r="1" transform="rotate(39.7988 1729.72 347.797)" fill="#FED1EB"/>
<circle cx="1909.87" cy="253.468" r="1" transform="rotate(39.7988 1909.87 253.468)" fill="#FED1EB"/>
<circle cx="1075" cy="194" r="1" fill="#FED1EB"/>
<circle cx="455" cy="160" r="1" fill="#FED1EB"/>
<circle cx="1140.76" cy="490.857" r="1" transform="rotate(43.9725 1140.76 490.857)" fill="#FED1EB"/>
<circle cx="1677.73" cy="338.327" r="1" transform="rotate(39.7988 1677.73 338.327)" fill="#FED1EB"/>
<circle cx="1857.89" cy="243.998" r="1" transform="rotate(39.7988 1857.89 243.998)" fill="#FED1EB"/>
<circle cx="1012" cy="137" r="1" fill="#FED1EB"/>
<circle cx="392" cy="103" r="1" fill="#FED1EB"/>
<circle cx="1134.99" cy="406.095" r="1" transform="rotate(43.9725 1134.99 406.095)" fill="#FED1EB"/>
<circle cx="1665.82" cy="254.209" r="1" transform="rotate(39.7988 1665.82 254.209)" fill="#FED1EB"/>
<circle cx="1845.97" cy="159.88" r="1" transform="rotate(39.7988 1845.97 159.88)" fill="#FED1EB"/>
<circle cx="1181" cy="53" r="1" fill="#FED1EB"/>
<circle cx="1286" cy="179" r="1" fill="#FED1EB"/>
<circle cx="1269" cy="333" r="1" fill="#FED1EB"/>
<circle cx="1153" cy="402" r="1" fill="#FED1EB"/>
<circle cx="902" cy="274" r="1" fill="#FED1EB"/>
<circle cx="282" cy="240" r="1" fill="#FED1EB"/>
<circle cx="960.709" cy="428.315" r="1" transform="rotate(43.9725 960.709 428.315)" fill="#FED1EB"/>
<circle cx="1493.61" cy="289.056" r="1" transform="rotate(39.7988 1493.61 289.056)" fill="#FED1EB"/>
<circle cx="1673.77" cy="194.727" r="1" transform="rotate(39.7988 1673.77 194.727)" fill="#FED1EB"/>
<circle cx="876" cy="66" r="1" fill="#FED1EB"/>
<circle cx="742" cy="170" r="1" fill="#FED1EB"/>
<circle cx="122" cy="136" r="1" fill="#FED1EB"/>
<circle cx="917.77" cy="242.379" r="1" transform="rotate(43.9725 917.77 242.379)" fill="#FED1EB"/>
<circle cx="1437.25" cy="106.737" r="1" transform="rotate(39.7988 1437.25 106.737)" fill="#FED1EB"/>
<circle cx="1617.41" cy="12.4084" r="1" transform="rotate(39.7988 1617.41 12.4084)" fill="#FED1EB"/>
<circle cx="861" cy="172" r="1" fill="#FED1EB"/>
<circle cx="241" cy="138" r="1" fill="#FED1EB"/>
<circle cx="1002.02" cy="326.442" r="1" transform="rotate(43.9725 1002.02 326.442)" fill="#FED1EB"/>
<circle cx="1527.4" cy="184.446" r="1" transform="rotate(39.7988 1527.4 184.446)" fill="#FED1EB"/>
<circle cx="1707.56" cy="90.1174" r="1" transform="rotate(39.7988 1707.56 90.1174)" fill="#FED1EB"/>
<circle cx="551" cy="51" r="1" fill="#FED1EB"/>
<circle cx="418" cy="192" r="1" fill="#FED1EB"/>
<circle cx="1047.5" cy="111.5" r="2.5" fill="#D9D9D9"/>
<circle cx="738.5" cy="244.5" r="2.5" fill="#D9D9D9"/>
<circle cx="354.5" cy="68.5" r="2.5" fill="#D9D9D9"/>
<circle cx="414.5" cy="334.5" r="2.5" fill="#D9D9D9"/>
<circle cx="1581.5" cy="353.5" r="2.5" fill="#D9D9D9"/>
<circle cx="1745.5" cy="47.5" r="2.5" fill="#D9D9D9"/>
</g>
<defs>
<linearGradient id="paint0_linear_313_1011" x1="960" y1="-121" x2="960" y2="841" gradientUnits="userSpaceOnUse">
<stop stop-color="#C10572"/>
<stop offset="1" stop-color="#FC74C3"/>
</linearGradient>
<clipPath id="clip0_313_1011">
<rect width="1920" height="1080" fill="white"/>
</clipPath>
</defs>
</svg>
