<svg width="1920" height="1080" viewBox="0 0 1920 1080" fill="none" xmlns="http://www.w3.org/2000/svg">
<g clip-path="url(#clip0_313_916)">
<rect width="1920" height="1080" fill="#FDA3D7"/>
<path d="M1920 924.251C1158.62 874.897 322.09 903.687 -1 924.251V1080H1920V924.251Z" fill="#3C0525"/>
<path d="M234.693 814.754C154.574 821.309 44.848 890.316 0 924H1924V698C1884.04 672.737 1849.48 706.875 1808 725.31C1766.52 743.745 1772.11 645.162 1723.78 605.14C1679.5 568.469 1702.5 619.592 1619.5 565C1578.21 537.845 1538 672.5 1378 623C1342.62 612.055 1204.5 694 1146 694C1095.31 694 991.5 652.614 955 643.5C920.355 634.849 814.562 742.5 722 742.5C685.5 742.5 627.5 699.5 598 699.5C575.322 699.5 492.197 743.061 475 750.572C457.803 758.083 452.5 743.5 435 735C424.943 730.115 334.843 806.561 234.693 814.754Z" fill="url(#paint0_linear_313_916)"/>
<path d="M436 735.5C434.5 751.5 409.3 785.1 472.5 751.5C456.5 757 450.5 741 436 735.5Z" fill="#FDBAE1"/>
<path d="M1376 622.5C1381.33 654.833 1416.1 697.4 1522.5 615C1501 627 1448.5 645.5 1376 622.5Z" fill="#FDBAE1"/>
<path d="M1759 661C1782.5 740 1746.5 772.5 1833 712.5C1802 729 1786.5 744 1759 661Z" fill="#FDBAE1"/>
<path d="M790.814 725.272C652.793 783.662 687.271 756.873 629 708C705.16 743.996 756.052 737.496 790.814 725.272C799.647 721.536 809.185 717.451 819.5 713C811.387 716.875 801.924 721.366 790.814 725.272Z" fill="#FDBAE1"/>
<circle cx="1523" cy="315" r="128" fill="url(#paint1_linear_313_916)"/>
<path d="M1559.44 268.619C1554.62 265.487 1565.47 255.267 1571.49 250.549C1576.11 249.444 1584.92 248.44 1583.24 253.259C1581.13 259.283 1599.5 256.572 1607.63 258.68C1615.76 260.789 1617.57 268.619 1617.57 275.245C1617.57 280.546 1609.14 293.115 1604.92 298.737C1610.44 295.424 1621.48 289.882 1621.48 294.219C1621.48 299.64 1621.48 313.495 1617.57 318.313C1613.65 323.132 1621.48 336.986 1630.22 340.902C1638.95 344.817 1619.68 364.996 1621.48 360.779C1623.29 356.563 1600.7 368.911 1599.5 364.996C1598.29 361.08 1589.56 344.817 1585.34 340.902C1581.13 336.986 1586.25 329.457 1595.58 318.313C1603.05 309.399 1598.7 304.158 1595.58 302.652C1591.07 308.977 1580.83 320 1576.01 313.495C1569.98 305.363 1559.44 303.556 1559.44 294.219C1559.44 284.883 1565.47 272.535 1559.44 268.619Z" fill="url(#paint2_linear_313_916)"/>
<path d="M1549.2 383.97C1552.58 382.283 1554.22 376.239 1554.62 373.428C1554.78 372.525 1557.03 372.826 1558.24 372.826C1559.44 372.826 1565.47 380.355 1568.48 379.452C1571.49 378.548 1573 390.897 1568.48 392.101C1563.96 393.306 1561.85 400.835 1560.95 397.522C1560.23 394.872 1553.82 394.41 1550.71 394.511C1548.8 391.7 1545.83 385.656 1549.2 383.97Z" fill="url(#paint3_linear_313_916)"/>
<path d="M1534.14 323.433C1533.66 321.264 1532.94 317.108 1532.64 315.301C1534.24 316.405 1537.52 317.951 1537.76 315.301C1538.06 311.988 1542.88 313.795 1542.88 315.301C1542.88 316.807 1546.19 319.216 1548.6 318.614C1551.01 318.011 1548.3 328.854 1547.4 327.047C1546.49 325.24 1543.78 326.143 1541.07 327.047C1538.36 327.95 1534.75 326.143 1534.14 323.433Z" fill="url(#paint4_linear_313_916)"/>
<path d="M1420.6 269.03C1423.01 259.874 1416.08 257.886 1416.08 252.164C1417.29 245.839 1448.61 216.926 1454.03 215.722C1465.48 211.806 1489.75 211.987 1495.29 212.71C1502.22 213.613 1513.96 221.444 1524.2 225.058C1532.4 227.949 1543.78 230.178 1547.09 236.503C1549.5 242.828 1539.81 268.367 1538.36 265.717C1536.55 262.404 1507.04 269.03 1501.32 265.717C1495.59 262.404 1473.61 284.089 1466.98 290.413C1460.36 296.738 1469.69 310.592 1473.61 310.592C1477.52 310.592 1498 315.11 1507.04 320.23C1516.07 325.35 1528.12 350.347 1521.49 355.166C1514.87 359.985 1503.12 350.95 1498 341.312C1493.91 333.602 1487.46 333.281 1484.75 334.084C1482.94 340.911 1479.75 355.648 1481.44 359.985C1483.55 365.406 1476.92 376.55 1473.61 380.164C1470.29 383.778 1448.61 378.357 1440.78 372.333C1432.95 366.31 1445.9 353.359 1451.92 347.336C1457.95 341.312 1450.72 330.47 1448.61 328.964C1446.5 327.458 1435.66 341.914 1426.92 343.722C1418.19 345.529 1420.6 328.362 1420.6 320.23C1420.6 312.098 1414.28 301.557 1414.28 296.136C1414.28 290.714 1417.59 280.474 1420.6 269.03Z" fill="url(#paint5_linear_313_916)"/>
<path d="M380.633 777.422L377.074 766.237C367.922 772.084 369.683 786.999 370.211 788.862C371.219 792.42 371.473 794.2 371.219 796.742C371.168 797.248 371.219 797.25 370.456 800.809C369.641 804.611 369.194 811.486 363.601 823.942C358.009 836.398 358.263 856.734 358.009 864.361C357.755 871.987 363.093 901.22 366.398 906.813C369.702 912.405 373.007 930.962 375.295 934.013C377.583 937.063 376.312 964.517 376.82 966.551C377.328 968.585 374.786 975.702 370.465 976.211C367.008 976.618 366.821 980.617 367.16 982.566C369.194 987.853 374.617 985.786 377.074 984.091C381.141 990.192 392.581 987.65 394.106 986.379C395.631 985.108 397.919 980.787 397.156 978.753C396.394 976.719 400.461 964.009 401.986 961.213C403.206 958.976 405.545 949.265 406.562 944.689C407.782 951.197 415.205 962.314 418.764 967.059C414.696 971.127 408.934 971.635 406.562 971.381C400.461 974.228 400.969 978.329 401.986 980.024C404.427 983.278 412.663 984.6 416.476 984.854C419.933 984.65 425.882 984.261 428.424 984.091C444.489 985.108 463.928 980.956 471.638 978.753C498.686 974.889 513.921 962.399 518.158 956.637C532.19 942.198 533.834 921.472 532.902 912.914C532.088 899.695 522.734 886.561 518.158 881.647C511.854 876.969 499.771 862.073 494.517 855.209C487.806 848.091 491.721 834.28 494.517 828.263C495.94 815.451 487.653 818.858 483.332 822.162C473.774 832.127 474.943 844.448 476.723 849.362C476.723 858.514 492.653 877.41 500.618 885.714C518.921 904.83 519.09 923.675 516.887 930.708C509.973 955.722 487.569 961.467 477.231 961.213C484.755 924.2 468.842 892.238 459.945 880.884C457.403 875.037 431.728 857.751 426.136 855.209C420.543 852.667 409.104 842.499 408.596 837.923C408.087 833.348 409.612 831.822 411.646 828.518C413.273 825.874 419.103 823.01 421.814 821.908C426.898 818.248 427.83 813.435 427.661 811.486V801.063C423.594 801.674 417.493 796.572 414.951 793.946C412.104 789.878 407.833 787.845 406.054 787.336C397.309 787.743 392.75 786.489 391.564 785.811C387.7 781.134 387.073 771.321 387.242 767C383.785 768.627 381.396 774.626 380.633 777.422Z" fill="#200113"/>
<path d="M380.624 986.633C380.455 985.023 381.031 981.956 383.675 981.549" stroke="#FC8BCD" stroke-width="0.5" stroke-linecap="round"/>
<path d="M387.996 982.312C387.234 982.481 385.81 983.38 386.217 987.65" stroke="#FC8BCD" stroke-width="0.5" stroke-linecap="round"/>
<path d="M382.658 810.724C385.793 809.537 395.826 807.47 410.875 808.69" stroke="#FC8BCD" stroke-linecap="round"/>
<path d="M385.454 819.366C388.081 816.994 396.843 812.198 410.875 811.994" stroke="#FC8BCD" stroke-linecap="round"/>
<path d="M392.572 825.975C394.182 823.179 400.198 816.824 411.383 813.773" stroke="#FC8BCD" stroke-linecap="round"/>
<path d="M376.557 768.779C371.676 777.931 375.371 783.438 377.828 785.048C377.014 783.015 376.981 780.303 377.065 779.202C378.286 782.252 380.624 783.523 381.641 783.777C378.387 780.524 376.896 772.423 376.557 768.779Z" fill="#FC74C3"/>
<path d="M384.437 783.523C383.014 775.592 385.031 771.067 386.217 769.796C386.42 779.151 388.844 784.54 390.03 786.065C387.589 785.048 386.132 783.099 385.708 782.252C385.505 782.049 384.776 783.015 384.437 783.523Z" fill="#FC74C3"/>
<path d="M370.456 978.752C369.694 979.261 368.321 980.939 368.931 984.599" stroke="#FC8BCD" stroke-width="0.5" stroke-linecap="round"/>
<path d="M376.557 979.77C375.964 980.278 374.93 981.752 375.54 984.599" stroke="#FC8BCD" stroke-width="0.5" stroke-linecap="round"/>
<path d="M377.574 984.345C377.404 982.82 377.777 979.719 380.624 979.515C382.489 978.922 386.369 976.77 386.979 972.906C387.742 968.5 389.369 958.518 389.776 953.841C390.538 943.079 391.708 919.981 390.284 913.676" stroke="#FC8BCD" stroke-width="0.5" stroke-linecap="round"/>
<path d="M402.232 796.234C404.774 795.895 410.112 796.488 411.129 801.572C408.587 802.165 403.249 801.928 402.232 796.234Z" fill="#FC74C3"/>
<path d="M406.807 796.742C406.299 797.505 405.943 799.691 406.553 801.318C406.977 800.64 407.824 798.776 406.807 796.742Z" fill="#400226"/>
<path d="M401.977 979.515C402.147 978.075 402.994 975.296 405.028 974.686" stroke="#FC8BCD" stroke-width="0.5" stroke-linecap="round"/>
<path d="M407.57 976.72C406.638 977.482 405.18 979.669 405.791 982.312" stroke="#FC8BCD" stroke-width="0.5" stroke-linecap="round"/>
<path d="M414.18 977.228C413.163 978.16 411.18 980.786 411.383 983.837" stroke="#FC8BCD" stroke-width="0.5" stroke-linecap="round"/>
<path d="M417.484 979.007C416.891 979.685 415.806 981.752 416.213 984.599" stroke="#FC8BCD" stroke-width="0.5" stroke-linecap="round"/>
<path d="M421.552 979.516C420.958 980.278 420.128 982.109 421.551 984.346" stroke="#FC8BCD" stroke-width="0.5" stroke-linecap="round"/>
<path d="M428.923 969.093C426.212 953.163 426.737 918.455 450.531 907.067" stroke="#FC8BCD" stroke-width="0.5" stroke-linecap="round"/>
</g>
<defs>
<linearGradient id="paint0_linear_313_916" x1="962" y1="561.344" x2="962" y2="1194.5" gradientUnits="userSpaceOnUse">
<stop stop-color="#F90F97"/>
<stop offset="1" stop-color="#FDA3D7"/>
</linearGradient>
<linearGradient id="paint1_linear_313_916" x1="1448.01" y1="183.085" x2="1594.98" y2="435.772" gradientUnits="userSpaceOnUse">
<stop stop-color="#FC8BCD"/>
<stop offset="1" stop-color="#FC8BCD" stop-opacity="0"/>
</linearGradient>
<linearGradient id="paint2_linear_313_916" x1="1571.79" y1="225.25" x2="1607.03" y2="368.309" gradientUnits="userSpaceOnUse">
<stop stop-color="#FB5DB9" stop-opacity="0.5"/>
<stop offset="1" stop-color="#FB5DB9" stop-opacity="0"/>
</linearGradient>
<linearGradient id="paint3_linear_313_916" x1="1552.82" y1="361.381" x2="1571.49" y2="398.426" gradientUnits="userSpaceOnUse">
<stop stop-color="#FB5DB9" stop-opacity="0.22"/>
<stop offset="1" stop-color="#FB5DB9" stop-opacity="0"/>
</linearGradient>
<linearGradient id="paint4_linear_313_916" x1="1532.94" y1="305.362" x2="1541.11" y2="327.282" gradientUnits="userSpaceOnUse">
<stop stop-color="#FB5DB9" stop-opacity="0.59"/>
<stop offset="1" stop-color="#FB5DB9" stop-opacity="0"/>
</linearGradient>
<linearGradient id="paint5_linear_313_916" x1="1447.4" y1="207.179" x2="1529.32" y2="371.32" gradientUnits="userSpaceOnUse">
<stop stop-color="#FB5DB9" stop-opacity="0.33"/>
<stop offset="1" stop-color="#FB5DB9" stop-opacity="0"/>
</linearGradient>
<clipPath id="clip0_313_916">
<rect width="1920" height="1080" fill="white"/>
</clipPath>
</defs>
</svg>
