<svg width="1920" height="1080" viewBox="0 0 1920 1080" fill="none" xmlns="http://www.w3.org/2000/svg">
<g clip-path="url(#clip0_313_1113)">
<rect width="1920" height="1080" fill="url(#paint0_linear_313_1113)"/>
<path d="M921.5 501.5L905 504.5C876.333 526.333 814.1 573.2 794.5 586C770 602 756 654 745.5 654C735 654 680 686 666 686C654.8 686 646.333 736 643.5 761C632.5 765 607.3 775.5 594.5 785.5C578.5 798 529 887.5 514.5 883.5C500 879.5 392 951 367.5 965.5C347.9 977.1 274.667 1045.33 240.5 1078H1919.5V722C1901 725.667 1858.7 730.8 1837.5 722C1811 711 1717 761 1700.5 761C1684 761 1582.5 732 1569.5 733C1559.1 733.8 1482.83 702 1446 686C1443 678 1433.9 660.4 1421.5 654C1406 646 1375.5 634 1357.5 625C1339.5 616 1279 612.5 1268.5 612.5C1258 612.5 1185 623 1182 625C1179 627 1147 618 1136.5 612.5C1128.1 608.1 1115.33 602.333 1110 600C1106.67 600.5 1098.6 601.2 1093 600C1086 598.5 1078.5 592.5 1071.5 586C1064.5 579.5 1040 577 1026 570C1012 563 1011 546.5 1001 539C991 531.5 980 551 976 539C972 527 949 511.5 945 509.5C941.8 507.9 928 503.5 921.5 501.5Z" fill="url(#paint1_linear_313_1113)"/>
<g filter="url(#filter0_d_313_1113)">
<path d="M757 550L739.5 567.5C664.5 573 598.5 463 587.5 456.5C578.7 451.3 534.167 454.333 513 456.5L475.5 451.5C463.833 460.833 439.1 480.4 433.5 484C426.5 488.5 389.5 543.5 377 543.5C364.5 543.5 308 613.5 292.5 607.5C277 601.5 233.5 577.5 222 577.5C210.5 577.5 168.5 607 153.5 607.5C141.5 607.9 126.833 629 121 639.5L101 647.5C96.5 643.333 83.3 631.7 66.5 618.5C49.7 605.3 15.1667 613 0 618.5V1077.5H1921V555.5C1912.5 563.5 1892 579.5 1878 579.5C1860.5 579.5 1767 652.5 1738 652.5C1709 652.5 1671 681 1628.5 678.5C1586 676 1506 659 1482 652.5C1462.8 647.3 1446.33 631 1440.5 623.5C1430.17 621 1407.7 616.5 1400.5 618.5C1393.3 620.5 1371.17 649.333 1361 663.5C1356.33 662.667 1345.3 660.6 1338.5 659C1330 657 1242 699 1230.5 696.5C1219 694 1164 663.5 1133.5 668C1103 672.5 1083 646 1060.5 635C1038 624 1009 588 1005 591.5C1001 595 979 588 966 579.5C953 571 872 524.501 853 508.5C834 492.499 840.5 502.5 828 501.5C815.5 500.5 811 500.5 806.5 508.5C802.9 514.9 786.667 534.5 779 543.5L757 550Z" fill="url(#paint2_linear_313_1113)"/>
</g>
<g filter="url(#filter1_d_313_1113)">
<path d="M719.875 569.594C710.67 567.593 694.695 581.437 687.858 588.61L627.827 595.114L601.813 602.62C592.475 599.785 570.997 593.013 559.791 588.61C545.784 583.105 527.775 550.078 513.767 543.073C502.562 537.468 465.075 540.738 447.733 543.073C432.559 551.913 399.608 569.594 389.203 569.594C376.196 569.594 329.171 556.083 311.162 550.078C293.153 544.074 294.153 509.046 277.144 500.038C260.135 491.031 234.122 483.025 222.116 483.025C210.109 483.025 187.097 452 181.094 452C175.091 452 135.07 458.005 124.565 459.006C116.16 459.806 98.3845 475.352 90.5471 483.025L58.5305 500.038C36.9192 505.643 10.5055 531.063 0 543.073V1077H1921V825.799C1895.15 843.647 1840.06 880.142 1826.45 883.345C1809.44 887.348 1714.89 877.841 1697.88 867.833C1680.88 857.825 1631.35 808.785 1618.84 798.777C1608.84 790.771 1593 771.089 1586.33 762.248C1575.99 762.749 1550.81 760.046 1532.8 745.235C1514.79 730.423 1505.62 719.381 1503.28 715.711H1474.77C1462.57 715.711 1443.23 729.041 1421.4 744.093L1419.74 745.235C1397.23 760.747 1212.13 723.717 1181.62 715.711C1151.1 707.705 1134.59 714.71 1106.08 699.198C1077.56 683.685 1059.05 683.685 1034.54 669.674C1010.03 655.663 1016.53 653.161 999.02 641.652C981.511 630.143 943.491 627.14 926.983 620.135C910.474 613.129 917.478 626.139 902.47 627.14C887.462 628.141 865.951 613.129 845.94 602.62C825.93 592.112 791.412 580.102 777.405 577.6C763.397 575.098 760.896 588.61 752.892 588.61C744.888 588.61 731.381 572.096 719.875 569.594Z" fill="url(#paint3_linear_313_1113)"/>
</g>
<g filter="url(#filter2_d_313_1113)">
<path d="M929 786C937 784.4 975.667 791 994 794.5C1006.83 803 1036.4 819.999 1052 819.999C1071.5 819.999 1124.5 887.499 1161.5 905.499C1191.1 919.899 1211.5 911.499 1218 905.499C1225.17 912.499 1241.5 933.099 1249.5 959.499C1259.5 992.499 1253.5 1008.5 1276.5 1036C1294.9 1058 1374.17 1074.83 1411.5 1080.5H371.5C395 1055.5 444.9 1003.8 456.5 996.999C471 988.499 555 967.499 590 971.499C625 975.499 714.5 911.999 719 905.499L719.591 904.646C724.962 896.885 742.734 871.207 748.5 863.999C754.5 856.499 767 852.499 778 845.499C789 838.499 792 823.999 793.5 819.999C795 815.999 809 807.499 812 803.999C815 800.499 827.5 794.5 833.5 786C838.3 779.2 841.833 783.166 843 786H856C860.5 788.833 870.6 795.3 875 798.5C880.5 802.5 894 801 904 794.5C914 788 919 788 929 786Z" fill="url(#paint4_linear_313_1113)"/>
</g>
<g filter="url(#filter3_d_313_1113)">
<path d="M783.296 917.735C780.097 918.536 763.967 914.062 756.303 911.725C737.474 897.703 696.918 866.753 685.321 855.134C670.825 840.61 647.831 855.134 618.839 855.134C595.645 855.134 572.184 822.748 563.353 806.555L518.365 821.078C494.371 848.789 444.584 900.507 437.386 885.683C428.388 867.153 406.894 858.64 380.401 855.134C353.907 851.628 308.419 788.525 292.423 788.525C276.428 788.525 204.446 803.049 195.449 821.078C186.451 839.106 137.964 821.078 101.973 788.525C73.1804 762.482 20.6608 727.258 -2 712.901V1080H1920V624.256C1898.34 615.91 1853.22 599.216 1846.02 599.216C1837.02 599.216 1769.04 613.24 1750.54 608.232C1732.05 603.224 1725.55 569.168 1717.55 569.168C1709.55 569.168 1658.07 539.119 1635.57 537.116C1617.58 535.514 1610.08 528.435 1608.58 525.097L1570.59 449.974C1545.6 449.974 1528.1 426.937 1507.11 409.408C1486.11 391.88 1407.63 475.015 1380.64 498.053C1353.65 521.09 1269.67 599.716 1258.17 599.216C1246.68 598.715 1217.18 621.252 1218.68 624.256C1220.18 627.261 1197.69 657.31 1188.19 657.31C1178.69 657.31 1165.7 677.844 1154.2 684.855C1142.7 691.867 1108.71 718.911 1106.71 721.415C1104.71 723.919 1080.72 719.912 1078.22 721.415C1075.72 722.917 1056.22 715.405 1048.73 712.901C1041.23 710.397 1039.73 708.393 1037.23 707.392C1035.23 706.59 1033.4 702.718 1032.73 700.882C1028.9 700.047 1020.73 698.578 1018.73 699.38C1016.24 700.381 1010.74 702.885 1007.24 703.386C1003.74 703.887 996.24 712.401 996.24 717.409C996.24 722.417 976.246 747.458 971.247 753.468C966.248 759.477 935.756 787.022 930.258 788.525C924.759 790.027 927.258 818.073 919.26 821.078C911.262 824.083 871.773 838.606 863.775 839.107C855.777 839.608 827.284 881.175 820.786 885.683C814.288 890.19 808.789 902.711 799.791 904.213C790.794 905.715 787.295 916.733 783.296 917.735Z" fill="url(#paint5_linear_313_1113)"/>
</g>
<g filter="url(#filter4_d_313_1113)">
<path d="M863 1047.5C859.8 1048.7 851.667 1070.67 848 1081.5L1920 1080V760C1871.67 783.333 1770.5 828.1 1752.5 820.5C1730 811 1653.5 786.501 1640.5 784.501C1627.5 782.501 1608 799.501 1589 803.501C1570 807.501 1481 896.501 1430 891.001C1379 885.501 1274 885.001 1254 876.001C1234 867.001 1183 855.502 1167 849.502C1151 843.502 1129 870.502 1117 870.502C1105 870.502 1068.5 914.002 1058.5 918.502C1048.5 923.002 1047 955.002 1036 956.502C1025 958.002 987.5 988.002 980.5 993.002C973.5 998.002 957 1015.5 942.5 1021.5C928 1027.5 900 1027.5 892.5 1027.5C885 1027.5 867 1046 863 1047.5Z" fill="#200113"/>
</g>
</g>
<defs>
<filter id="filter0_d_313_1113" x="-132" y="297.5" width="2201" height="906" filterUnits="userSpaceOnUse" color-interpolation-filters="sRGB">
<feFlood flood-opacity="0" result="BackgroundImageFix"/>
<feColorMatrix in="SourceAlpha" type="matrix" values="0 0 0 0 0 0 0 0 0 0 0 0 0 0 0 0 0 0 127 0" result="hardAlpha"/>
<feOffset dx="8" dy="-14"/>
<feGaussianBlur stdDeviation="70"/>
<feComposite in2="hardAlpha" operator="out"/>
<feColorMatrix type="matrix" values="0 0 0 0 0.988235 0 0 0 0 0.545098 0 0 0 0 0.803922 0 0 0 0.2 0"/>
<feBlend mode="normal" in2="BackgroundImageFix" result="effect1_dropShadow_313_1113"/>
<feBlend mode="normal" in="SourceGraphic" in2="effect1_dropShadow_313_1113" result="shape"/>
</filter>
<filter id="filter1_d_313_1113" x="-139" y="296" width="2201" height="905" filterUnits="userSpaceOnUse" color-interpolation-filters="sRGB">
<feFlood flood-opacity="0" result="BackgroundImageFix"/>
<feColorMatrix in="SourceAlpha" type="matrix" values="0 0 0 0 0 0 0 0 0 0 0 0 0 0 0 0 0 0 127 0" result="hardAlpha"/>
<feOffset dx="1" dy="-16"/>
<feGaussianBlur stdDeviation="70"/>
<feComposite in2="hardAlpha" operator="out"/>
<feColorMatrix type="matrix" values="0 0 0 0 0.988235 0 0 0 0 0.545098 0 0 0 0 0.803922 0 0 0 0.2 0"/>
<feBlend mode="normal" in2="BackgroundImageFix" result="effect1_dropShadow_313_1113"/>
<feBlend mode="normal" in="SourceGraphic" in2="effect1_dropShadow_313_1113" result="shape"/>
</filter>
<filter id="filter2_d_313_1113" x="265.5" y="670.245" width="1248" height="506.254" filterUnits="userSpaceOnUse" color-interpolation-filters="sRGB">
<feFlood flood-opacity="0" result="BackgroundImageFix"/>
<feColorMatrix in="SourceAlpha" type="matrix" values="0 0 0 0 0 0 0 0 0 0 0 0 0 0 0 0 0 0 127 0" result="hardAlpha"/>
<feOffset dx="-2" dy="-8"/>
<feGaussianBlur stdDeviation="52"/>
<feComposite in2="hardAlpha" operator="out"/>
<feColorMatrix type="matrix" values="0 0 0 0 0.988235 0 0 0 0 0.545098 0 0 0 0 0.803922 0 0 0 0.2 0"/>
<feBlend mode="normal" in2="BackgroundImageFix" result="effect1_dropShadow_313_1113"/>
<feBlend mode="normal" in="SourceGraphic" in2="effect1_dropShadow_313_1113" result="shape"/>
</filter>
<filter id="filter3_d_313_1113" x="-141" y="258" width="2202" height="953" filterUnits="userSpaceOnUse" color-interpolation-filters="sRGB">
<feFlood flood-opacity="0" result="BackgroundImageFix"/>
<feColorMatrix in="SourceAlpha" type="matrix" values="0 0 0 0 0 0 0 0 0 0 0 0 0 0 0 0 0 0 127 0" result="hardAlpha"/>
<feOffset dx="1" dy="-9"/>
<feGaussianBlur stdDeviation="70"/>
<feComposite in2="hardAlpha" operator="out"/>
<feColorMatrix type="matrix" values="0 0 0 0 0.988235 0 0 0 0 0.545098 0 0 0 0 0.803922 0 0 0 0.2 0"/>
<feBlend mode="normal" in2="BackgroundImageFix" result="effect1_dropShadow_313_1113"/>
<feBlend mode="normal" in="SourceGraphic" in2="effect1_dropShadow_313_1113" result="shape"/>
</filter>
<filter id="filter4_d_313_1113" x="679" y="587" width="1402" height="651.502" filterUnits="userSpaceOnUse" color-interpolation-filters="sRGB">
<feFlood flood-opacity="0" result="BackgroundImageFix"/>
<feColorMatrix in="SourceAlpha" type="matrix" values="0 0 0 0 0 0 0 0 0 0 0 0 0 0 0 0 0 0 127 0" result="hardAlpha"/>
<feOffset dx="-4" dy="-8"/>
<feGaussianBlur stdDeviation="82.5"/>
<feComposite in2="hardAlpha" operator="out"/>
<feColorMatrix type="matrix" values="0 0 0 0 0.988235 0 0 0 0 0.454902 0 0 0 0 0.764706 0 0 0 0.2 0"/>
<feBlend mode="normal" in2="BackgroundImageFix" result="effect1_dropShadow_313_1113"/>
<feBlend mode="normal" in="SourceGraphic" in2="effect1_dropShadow_313_1113" result="shape"/>
</filter>
<linearGradient id="paint0_linear_313_1113" x1="960" y1="-694" x2="960" y2="1323.5" gradientUnits="userSpaceOnUse">
<stop stop-color="#FA2FA5"/>
<stop offset="1" stop-color="#FDA3D7"/>
</linearGradient>
<linearGradient id="paint1_linear_313_1113" x1="1080" y1="501.5" x2="1080" y2="1078" gradientUnits="userSpaceOnUse">
<stop stop-color="#A1045F"/>
<stop offset="1" stop-color="#FB46AF"/>
</linearGradient>
<linearGradient id="paint2_linear_313_1113" x1="988" y1="452" x2="960.5" y2="1077.5" gradientUnits="userSpaceOnUse">
<stop stop-color="#81034C"/>
<stop offset="1" stop-color="#A1045F"/>
</linearGradient>
<linearGradient id="paint3_linear_313_1113" x1="960.5" y1="452" x2="960.5" y2="1441.29" gradientUnits="userSpaceOnUse">
<stop stop-color="#610239"/>
<stop offset="1" stop-color="#A1045F"/>
</linearGradient>
<linearGradient id="paint4_linear_313_1113" x1="869.5" y1="727.499" x2="795" y2="1156.5" gradientUnits="userSpaceOnUse">
<stop stop-color="#400226"/>
<stop offset="1" stop-color="#A1045F"/>
</linearGradient>
<linearGradient id="paint5_linear_313_1113" x1="970.247" y1="743.452" x2="959.208" y2="1667.46" gradientUnits="userSpaceOnUse">
<stop stop-color="#400226"/>
<stop offset="1" stop-color="#81034C"/>
</linearGradient>
<clipPath id="clip0_313_1113">
<rect width="1920" height="1080" fill="white"/>
</clipPath>
</defs>
</svg>
