<svg width="1920" height="1080" viewBox="0 0 1920 1080" fill="none" xmlns="http://www.w3.org/2000/svg">
<g clip-path="url(#clip0_313_984)">
<rect width="1920" height="1080" fill="#FDA3D7"/>
<path d="M237.934 427.418C136.148 379.449 36.9006 436.412 0 470.89V1079H1921V518.859C1885.44 540.512 1805.69 588.115 1771.23 605.304C1728.15 626.79 1481.2 566.828 1420.59 559.333C1359.98 551.838 1286.34 573.824 1243.27 605.304C1200.19 636.784 1089.99 634.285 1042.4 638.782C994.813 643.279 997.818 503.369 950.231 484.381C902.645 465.394 798.956 566.828 788.437 559.333C777.917 551.838 677.735 493.376 641.669 518.859C605.603 544.343 528.964 500.371 497.406 493.376C465.849 486.38 404.237 454.9 378.69 470.89C353.143 486.88 365.165 487.38 237.934 427.418Z" fill="url(#paint0_linear_313_984)"/>
<path d="M1920 700.323C988.945 658.082 252.061 682.723 0 700.323V1082H1920V700.323Z" fill="#610239"/>
<path d="M997.391 677H925.646L33 1080H1876L997.391 677Z" fill="#FDA3D7"/>
<path d="M995.762 677H926.742L68 1080H1841L995.762 677Z" fill="#200113"/>
<path d="M962 1081.5C959.5 988.5 958.5 776.5 962 677H966.5C964 808.5 980 967.333 992 1081.5H962Z" fill="#FDA3D7"/>
<path d="M924.265 1081.5C933 906.5 940 791.5 956 677H959C949.5 804 947 965.5 953 1081.5H924.265Z" fill="#FDA3D7"/>
<path d="M1142 441C1128.42 478.5 1094.01 558.8 1065 580" stroke="#400226" stroke-opacity="0.5"/>
<path d="M1168 443C1155.5 484 1117.4 569.6 1065 584" stroke="#400226" stroke-opacity="0.5"/>
<path d="M1052 589C1071.2 561.743 1112.28 493.383 1123 438" stroke="#400226" stroke-opacity="0.5"/>
<path d="M1034 610C1043.05 607.432 1063.73 600.038 1074 591" stroke="#400226" stroke-opacity="0.5"/>
<path d="M1033 609C1037.38 607.5 1047.11 601.4 1051 589" stroke="#400226" stroke-opacity="0.5"/>
<path d="M1014.5 627.98C1014.49 627.704 1014.26 627.489 1013.98 627.5C1013.7 627.511 1013.49 627.744 1013.5 628.02L1014.5 627.98ZM1013.5 628.02L1015.5 678.02L1016.5 677.98L1014.5 627.98L1013.5 628.02Z" fill="#400226" fill-opacity="0.5"/>
<path d="M1143.03 436.434C1144.35 436.106 1147.29 435.648 1148.48 436.434V440.463L1167.8 441.344V439.101H1169.78C1170.18 439.271 1169.95 442.304 1169.78 443.799L1148.48 442.919V679H1140.55L1142.96 442.691L1122.22 441.835C1121.82 441.442 1122.05 438.07 1122.22 436.434L1124.7 436.925V439.38L1142.99 440.213L1143.03 436.434Z" fill="#400226"/>
<path d="M1063 580H1065L1064.42 590.253L1059.5 678H1055.5L1062.23 590.076L1063 580Z" fill="#400226"/>
<path d="M1051 587.241V589.172L1075 591.103V589.172M1063 580H1065L1059.5 678H1055.5L1063 580Z" stroke="#400226"/>
<path d="M1030 607.828L1027 677" stroke="#400226" stroke-linecap="square"/>
<path d="M1025.5 609.259L1033.5 609.736" stroke="#400226" stroke-linecap="square"/>
<path d="M1123 439C1196.33 341.833 1350.1 115 1374.5 -1" stroke="#400226" stroke-opacity="0.5"/>
<path d="M1146.5 438.5C1210.33 363.5 1350.3 169.5 1397.5 -0.5" stroke="#400226" stroke-opacity="0.5"/>
<path d="M1169.5 438C1245.17 368.333 1405.3 181.1 1436.5 -0.5" stroke="#400226" stroke-opacity="0.5"/>
<path d="M1678 913.5V0H1822V916.43L1754.77 943L1678 913.5Z" fill="#400226"/>
<path d="M1822 916L1755 943V0H1822V916Z" fill="#81034C"/>
</g>
<defs>
<linearGradient id="paint0_linear_313_984" x1="960.75" y1="206.56" x2="960.75" y2="1005.05" gradientUnits="userSpaceOnUse">
<stop stop-color="#C10572"/>
<stop offset="1" stop-color="#FB46AF" stop-opacity="0"/>
</linearGradient>
<clipPath id="clip0_313_984">
<rect width="1920" height="1080" fill="white"/>
</clipPath>
</defs>
</svg>
