<svg width="1920" height="1080" viewBox="0 0 1920 1080" fill="none" xmlns="http://www.w3.org/2000/svg">
<g clip-path="url(#clip0_313_1092)">
<rect width="1920" height="1080" fill="url(#paint0_linear_313_1092)"/>
<path d="M669.197 409.315C358.874 278.248 93.7643 365.36 0 425.299V1217H1920V381.843C1878.96 413.977 1774.35 473.151 1684.25 452.771C1571.64 427.297 1497.08 330.052 1488.55 319.905C1417.98 235.99 1211.26 176.55 1039.08 318.407C901.339 431.893 735.099 426.298 669.197 409.315Z" fill="url(#paint1_linear_313_1092)"/>
<path d="M938 578.5C941.6 582.1 982.167 597 1002 604V675L58 668.5V522.5C74 522.5 126 514.499 168 499.5C210 484.501 254 412 304.5 396C355 380 357.5 443.5 377 481C396.5 518.5 459 570 495.5 564.5C532 559 559.5 530.5 583.5 522.5C607.5 514.5 616.5 539.999 657 543C697.5 546.001 754.5 515.499 768 514.499C781.5 513.499 801.5 539.999 816 545.499C830.5 550.999 834 538.999 849 539.999C864 540.999 914 581.5 919.5 582.5C925 583.5 933.5 574 938 578.5Z" fill="#A1045F"/>
<path d="M966.762 589.864C955.542 593.858 868.583 608.838 826.507 615.828C709.293 615.828 544.994 536.437 519.447 527.949C493.9 519.461 402.233 557.409 378.189 553.414C354.146 549.42 315.074 515.467 293.034 515.467C270.994 515.467 212.888 540.432 154.782 527.949C108.297 517.963 32.2254 499.155 0 491V854H1920V564.898C1896.46 577.881 1715.13 607.34 1697.59 607.839C1680.06 608.338 1578.38 581.875 1560.34 575.384C1542.31 568.893 1512.26 544.926 1503.74 540.432C1495.23 535.938 1466.17 553.414 1403.06 551.916C1339.94 550.418 1280.33 522.457 1252.78 515.467C1230.74 509.874 1219.22 513.136 1216.22 515.467C1177.31 528.948 1094.29 557.708 1073.46 564.898C1047.41 573.886 1022.86 581.875 998.821 580.876C974.777 579.878 980.788 584.871 966.762 589.864Z" fill="#81034C"/>
<path d="M454 618C410.4 626.4 351.833 657.833 328 672.5V803.5H1118.5V667C773 654.5 697.5 625.5 684.5 628.5C671.5 631.5 570.5 646 531.5 634.5C500.3 625.3 466.833 619.667 454 618Z" fill="#610239"/>
<path d="M1917 662.5H670.5H3.5V1224.5H1917V662.5Z" fill="#FDA3D7"/>
<path d="M735.958 691.08L698.91 704.09L611.296 654.552L565.737 696.585L526.686 681.573L489.137 649.047L447.082 629.532L376.49 654.552L343.948 679.071L304.897 649.047L254.832 601.51L229.799 589L204.767 629.532L164.214 649.047L0 612.518V1225H1920V649.047L1718.24 734.614L1610.1 743.622L1571.05 716.1L1555.02 654.552L1546.01 649.047L1453.89 679.071L1438.37 707.593L1401.32 723.606L1366.28 716.1L1351.26 696.585L1292.18 681.573L1150.5 716.1L1129.47 728.61L1075.4 734.614L1039.85 716.1L1010.82 721.104L979.275 716.1L934.717 723.606L923.703 721.104L914.19 723.606L882.149 696.585L870.634 707.593L864.125 709.595L855.113 718.602L837.09 707.593L785.523 713.098L735.958 691.08Z" fill="#400226"/>
<path d="M1099.5 673.5H1039L1086 539.5L1099.5 673.5Z" fill="#400226"/>
<path d="M1118 666H1085.5V535L1118 666Z" fill="#610239"/>
<path d="M1040 689.5L1031 677.5L1082 680V534H1087.5V680L1117.5 681V674.5H1122.5V680C1123.7 680.8 1136 682 1142 682.5L1145 689.5H1040Z" fill="#200113"/>
<path d="M1117.5 701H1172" stroke="#400226" stroke-linecap="round"/>
<path d="M1013.5 691H1029.5" stroke="#400226" stroke-linecap="round"/>
<path d="M1026 696.5H1069.5" stroke="#400226" stroke-linecap="round"/>
<circle cx="1407" cy="469" r="22" fill="#FDBAE1"/>
<path d="M676.5 771.139C462 701.583 113.5 713.093 0 753.125V1080H1920V937.271C1444 902.443 830.5 812.171 676.5 771.139Z" fill="#200113"/>
</g>
<defs>
<linearGradient id="paint0_linear_313_1092" x1="960" y1="-167.5" x2="960" y2="1323.5" gradientUnits="userSpaceOnUse">
<stop stop-color="#E20585"/>
<stop offset="1" stop-color="#FB5DB9"/>
</linearGradient>
<linearGradient id="paint1_linear_313_1092" x1="487.007" y1="74.1534" x2="2570.09" y2="1642.68" gradientUnits="userSpaceOnUse">
<stop stop-color="#FB46AF" stop-opacity="0.22"/>
<stop offset="1" stop-color="#FED1EB"/>
</linearGradient>
<clipPath id="clip0_313_1092">
<rect width="1920" height="1080" fill="white"/>
</clipPath>
</defs>
</svg>
