<svg width="1920" height="1080" viewBox="0 0 1920 1080" fill="none" xmlns="http://www.w3.org/2000/svg">
<g clip-path="url(#clip0_313_970)">
<rect width="1920" height="1080" fill="url(#paint0_linear_313_970)"/>
<circle cx="952.5" cy="743.5" r="146.5" fill="url(#paint1_linear_313_970)"/>
<path d="M988.5 813C912.5 772.6 971.833 761.167 1011 760.5L1408 768.5L1425.5 1021.5L1148.5 1028C1203 956.5 1157.5 923.5 1128 886C1117.7 872.912 1087.33 873.5 1076.5 871.5C1068.5 871.5 1053.5 846 1040.5 837.5C1030.1 830.7 1001.5 818.333 988.5 813Z" fill="#A36FAD" fill-opacity="0.9"/>
<path d="M1159.88 1021C1108.67 1039 1043.02 1071.67 1017.85 1086H1922V676C1855.19 704.4 1255.06 750.5 963.343 770C934.538 774.8 948.007 786.667 958.342 792C978.345 812.5 1072.36 833 1073.86 835.5C1075.36 838 1059.86 842.5 1061.36 845.5C1062.56 847.9 1075.86 852.833 1082.36 855C1093.96 858.2 1114.53 859.333 1123.37 859.5C1124.97 865.1 1134.04 870.167 1138.37 872C1144.77 880.4 1151.04 884.5 1153.37 885.5C1162.18 892.3 1176.38 898.667 1182.38 901C1185.88 902 1199.05 915.333 1204.38 918.5C1218.38 924.5 1223.39 929 1221.89 930.5C1203.38 945.5 1215.72 951.667 1225.89 953.5C1252.69 959.1 1224.39 971 1228.39 972C1247.39 980.5 1240.14 987.781 1230.39 989C1226.39 989.5 1186.18 1007.25 1188.88 1008.5C1202.88 1015 1179.88 1020 1159.88 1021Z" fill="#6D3D65"/>
<path d="M850 873C932.8 803 881.5 771.5 845.5 764.5L0.999756 788.5V1079.5H149.5C226.833 1068.5 372.9 1045.5 338.5 1041.5C295.5 1036.5 398 1022.5 413 1030C428 1037.5 559.5 1009 556 998C552.5 987 627.5 992.5 653.5 986.5C679.5 980.5 705.5 961.5 730.5 945.5C755.5 929.5 736 915 750.5 918C762.1 920.4 772.667 915.333 776.5 912.5C823.7 891.3 845.167 877.333 850 873Z" fill="#A36FAD" fill-opacity="0.9"/>
<path d="M1052.5 753C898 742 866 767 879.5 786.5L550.5 742C620.5 725.201 741.667 723.667 793.5 725C806 725 887.5 744.812 903.5 742C1028.7 720 1069 727.5 1105.5 736.5C1112.5 741 1251.33 751.167 1285 760.5L959.5 767C966.3 759.4 1024.33 754.5 1052.5 753Z" fill="#400226"/>
<path d="M1159.88 1015C1108.67 1033 1043.02 1065.67 1017.85 1080H1922V670C1855.19 698.4 1255.06 744.5 963.343 764C934.538 768.8 948.007 780.667 958.342 786C978.345 806.5 1072.36 827 1073.86 829.5C1075.36 832 1059.86 836.5 1061.36 839.5C1062.56 841.9 1075.86 846.833 1082.36 849C1093.96 852.2 1114.53 853.333 1123.37 853.5C1124.97 859.1 1134.04 864.167 1138.37 866C1144.77 874.4 1151.04 878.5 1153.37 879.5C1162.18 886.3 1176.38 892.667 1182.38 895C1185.88 896 1199.05 909.333 1204.38 912.5C1218.38 918.5 1223.39 923 1221.89 924.5C1203.38 939.5 1215.72 945.667 1225.89 947.5C1252.69 953.1 1224.39 965 1228.39 966C1247.39 974.5 1240.14 981.781 1230.39 983C1226.39 983.5 1186.18 1001.25 1188.88 1002.5C1202.88 1009 1179.88 1014 1159.88 1015Z" fill="#200113"/>
<path d="M842.341 774C684.489 733.6 216.342 669.167 2 642V1073C63.2644 1065.17 180.084 1045.9 157.248 1031.5C128.702 1013.5 370.087 1019 341.542 1008C312.996 997 446.71 1001 463.737 990C480.764 979 538.356 970.5 519.826 960.5C505.003 952.5 627.498 930.5 690.599 920.5C702.618 918.5 719.645 909.5 714.137 906.5C707.125 902 741.18 891.842 757.205 890.5C819.304 885.3 827.15 876 823.311 872C806.885 858.8 855.863 847.5 860.871 844.5C930.582 806.1 877.564 781.5 842.341 774Z" fill="#6D3D65"/>
<path d="M840.341 767C682.489 726.6 214.342 662.167 0 635V1066C61.2644 1058.17 178.084 1038.9 155.248 1024.5C126.702 1006.5 368.087 1012 339.542 1001C310.996 990 444.71 994 461.737 983C478.764 972 536.356 963.5 517.826 953.5C503.003 945.5 625.498 923.5 688.599 913.5C700.618 911.5 717.645 902.5 712.137 899.5C705.125 895 739.18 884.842 755.205 883.5C817.304 878.3 825.15 869 821.311 865C804.885 851.8 853.863 840.5 858.871 837.5C928.582 799.1 875.564 774.5 840.341 767Z" fill="#200113"/>
</g>
<defs>
<linearGradient id="paint0_linear_313_970" x1="960" y1="-257" x2="960" y2="1080" gradientUnits="userSpaceOnUse">
<stop stop-color="#699CEB"/>
<stop offset="1" stop-color="#FC74C3"/>
</linearGradient>
<linearGradient id="paint1_linear_313_970" x1="952.5" y1="597" x2="953" y2="1103.5" gradientUnits="userSpaceOnUse">
<stop stop-color="#E20585"/>
<stop offset="1" stop-color="#D9D9D9" stop-opacity="0"/>
</linearGradient>
<clipPath id="clip0_313_970">
<rect width="1920" height="1080" fill="white"/>
</clipPath>
</defs>
</svg>
