<svg width="1920" height="1080" viewBox="0 0 1920 1080" fill="none" xmlns="http://www.w3.org/2000/svg">
<g clip-path="url(#clip0_313_954)">
<rect width="1920" height="1080" fill="url(#paint0_linear_313_954)"/>
<path d="M1922 544.5C1316.4 333.7 392.333 489.333 6 593.5V1076.5H1922V544.5Z" fill="#81034C"/>
<path d="M1920 675.782C667.402 490.88 118.084 492.347 0 516.194V1071H1920V675.782Z" fill="#610239"/>
<path d="M1920 391C1548.84 573.932 485.35 700.724 0 741.253V1083H1920V391Z" fill="#400226"/>
<path d="M1920 780.47C1353.41 745.208 404.254 816.868 0.500521 857.106L0 1080H1920V780.47Z" fill="#200113"/>
<path d="M966 880C947.6 878 868.333 860.833 831 852.5C829.4 848.5 830.333 836.167 831 830.5L899 671.5L1106.5 674.5L1193.5 840.5L966 880Z" fill="#400226"/>
<path d="M951.5 859.5C945.9 858.3 878.5 845.333 845.5 839C851.1 833 879.167 748.833 892.5 707.5L951.5 859.5Z" fill="#E20585"/>
<path d="M871.5 832.5C864.3 832.5 852.5 834.833 847.5 836L845.5 839L941 857.5L925 809C922.833 809.167 917 809.7 911 810.5C903.5 811.5 906 817 888 817.5C873.6 817.9 871 827.667 871.5 832.5Z" fill="#171717"/>
<path d="M829.5 841.5C825.9 843.1 810.333 844.833 803 845.5C811.4 839.1 859.833 739.5 883 690.5L893 699.5C891.8 705.5 850.167 796.667 829.5 841.5Z" fill="#610239"/>
<path d="M1110.5 664C1088.9 670 958.167 664.5 895.5 661L861.5 734.5C868.5 722 873.333 714 883 699.5C895.4 713.9 930.167 823.833 946 877C966.8 862.2 1035.67 858.167 1067.5 858C1085.5 846.8 1140.33 843 1165.5 842.5C1174.7 836.1 1200.33 836.5 1212 837.5C1192 821.5 1136 715.167 1110.5 664Z" fill="url(#paint1_radial_313_954)"/>
</g>
<defs>
<linearGradient id="paint0_linear_313_954" x1="960" y1="-205.5" x2="960" y2="1026" gradientUnits="userSpaceOnUse">
<stop stop-color="#FB46AF"/>
<stop offset="1" stop-color="#FDA3D7"/>
</linearGradient>
<radialGradient id="paint1_radial_313_954" cx="0" cy="0" r="1" gradientUnits="userSpaceOnUse" gradientTransform="translate(1043 769) scale(185 116.487)">
<stop stop-color="#F90F97" stop-opacity="0.8"/>
<stop offset="1" stop-color="#610239"/>
</radialGradient>
<clipPath id="clip0_313_954">
<rect width="1920" height="1080" fill="white"/>
</clipPath>
</defs>
</svg>
