<svg width="1920" height="1080" viewBox="0 0 1920 1080" fill="none" xmlns="http://www.w3.org/2000/svg">
<g clip-path="url(#clip0_313_1065)">
<rect width="1920" height="1080" fill="url(#paint0_linear_313_1065)"/>
<path d="M598.5 711C603.3 469.8 423.5 417.5 333 421.5V1015L1827 1030.5C1828.33 842.333 1830.2 455.6 1827 414C1823.8 372.4 1767.67 363.333 1740 364C1722 227.6 1561.5 183.5 1483.5 178.5C1216.7 169.7 1163 387.5 1169.5 497.5C1082.7 516.7 1064.33 583.5 1066 614.5C1011.2 603.7 999.167 645 1000 667C819.6 564.6 713.167 675 682.5 743C650.5 701.4 613.167 704.333 598.5 711Z" fill="url(#paint1_linear_313_1065)"/>
<path d="M863.124 963.912C988.159 960.71 1048.47 1039.97 1063 1080H0V360.955C44.0829 308.515 124.902 339.105 159.801 360.955C237.547 309.716 311.085 360.955 338.136 392.979C448.344 447.42 437.156 619.817 417.786 699.211C596.522 673.591 671.263 791.614 686.291 853.828C797.3 866.238 850.433 932.388 863.124 963.912Z" fill="url(#paint2_linear_313_1065)"/>
<path d="M1173.26 891.381C1056.58 910.542 967.136 1025.11 937 1080H1920V321.532C1809.31 313.149 1792.3 405.862 1797.62 453.266C1700.52 451.669 1677.91 530.443 1678.75 570.03C1619.61 563.643 1577.85 606.623 1564.36 628.911C1464.86 646.076 1394.7 725.549 1372.06 763.14C1260.57 763.14 1193.07 848.634 1173.26 891.381Z" fill="url(#paint3_linear_313_1065)"/>
<path d="M1176 682L1922 585" stroke="#200113" stroke-width="3"/>
<path d="M969 638L1920 532.5" stroke="#200113" stroke-width="3"/>
<path d="M745 1079.5L1161 696.5" stroke="#200113" stroke-width="3"/>
<path d="M1067.5 553.5H1058.5L1058 1080H1078.5V564.5L1067.5 553.5Z" fill="#200113"/>
<path d="M944 644C945.731 649.767 950 651 954.5 652.5C1028.33 670.167 1174.54 703.339 1179.5 704C1187 705 1192.5 701.5 1191 694.5C1189.91 689.396 1184.5 688 1181.5 687C1106.17 670.5 955.103 636.968 953 636.5C948.5 635.5 942.5 639 944 644Z" fill="#200113"/>
<path d="M1017 790C1039.8 784 1054.17 785.833 1058.5 787.5V905.5C1035.7 911.5 1021.33 906.667 1017 903.5V790Z" fill="#200113"/>
<path d="M948.5 641L0 966" stroke="#200113" stroke-width="3"/>
<path d="M1019 666.5L1068 742.5L1121.5 685" stroke="#200113" stroke-width="3"/>
<path d="M1058.5 1005.5C1050.67 1003.67 1039.7 997.8 1058.5 989" stroke="#200113" stroke-width="3"/>
<path d="M1058.5 1044.5C1050.67 1042.67 1039.7 1036.8 1058.5 1028" stroke="#200113" stroke-width="3"/>
<path d="M1047.5 1000L765.5 1079.5" stroke="#200113" stroke-width="3"/>
<path d="M1048 1037.5L923 1080" stroke="#200113" stroke-width="3"/>
<path d="M1086.5 1000L1921 930.5" stroke="#200113" stroke-width="3"/>
<path d="M1088 1042L1920 981" stroke="#200113" stroke-width="3"/>
<path d="M1078 991C1089 992 1093.5 1004 1078 1005" stroke="#200113" stroke-width="3"/>
<path d="M1077 1034C1082.5 1031 1097 1045.5 1077 1048" stroke="#200113" stroke-width="3"/>
<path d="M989.5 636.5V649.5H999.5V636.5C999 630.5 989.5 631.5 989.5 636.5Z" fill="#200113"/>
<path d="M1170 681.134V694.134H1180V681.134C1179.5 675.134 1170 676.134 1170 681.134Z" fill="#200113"/>
<path d="M962 632.134V645.134H972V632.134C971.5 626.134 962 627.134 962 632.134Z" fill="#200113"/>
</g>
<defs>
<linearGradient id="paint0_linear_313_1065" x1="960" y1="-167.5" x2="960" y2="841" gradientUnits="userSpaceOnUse">
<stop stop-color="#699CEB"/>
<stop offset="1" stop-color="#FC74C3"/>
</linearGradient>
<linearGradient id="paint1_linear_313_1065" x1="1080.88" y1="178.241" x2="1080.88" y2="1030.5" gradientUnits="userSpaceOnUse">
<stop stop-color="#FB46AF"/>
<stop offset="1" stop-color="#FDA3D7"/>
</linearGradient>
<linearGradient id="paint2_linear_313_1065" x1="531.5" y1="332" x2="531.5" y2="1080" gradientUnits="userSpaceOnUse">
<stop stop-color="#FB46AF"/>
<stop offset="1" stop-color="#FC74C3"/>
</linearGradient>
<linearGradient id="paint3_linear_313_1065" x1="1428.5" y1="321" x2="1428.5" y2="1080" gradientUnits="userSpaceOnUse">
<stop stop-color="#C10572"/>
<stop offset="1" stop-color="#FB46AF"/>
</linearGradient>
<clipPath id="clip0_313_1065">
<rect width="1920" height="1080" fill="white"/>
</clipPath>
</defs>
</svg>
