<svg
    width="36"
    height="36"
    viewBox="0 0 36 36"
    fill="none"
    xmlns="http://www.w3.org/2000/svg"
>
    <rect
        width="36"
        height="36"
        rx="18"
        fill="#1F1F23"
    />
    <path
        fillRule="evenodd"
        clipRule="evenodd"
        d="M17.9912 11.0084C18.1238 11.0084 18.251 11.0611 18.3447 11.1549C18.4385 11.2486 18.4912 11.3758 18.4912 11.5084V17.5084C18.4912 17.641 18.4385 17.7682 18.3447 17.862C18.251 17.9557 18.1238 18.0084 17.9912 18.0084C17.8586 18.0084 17.7314 17.9557 17.6376 17.862C17.5439 17.7682 17.4912 17.641 17.4912 17.5084V11.5084C17.4912 11.3758 17.5439 11.2486 17.6376 11.1549C17.7314 11.0611 17.8586 11.0084 17.9912 11.0084ZM15.9512 12.8384C15.9785 12.8982 15.9939 12.9627 15.9962 13.0284C15.9986 13.0941 15.9881 13.1595 15.9651 13.2211C15.9422 13.2827 15.9073 13.3391 15.8626 13.3872C15.8178 13.4353 15.764 13.4741 15.7042 13.5014C14.5635 14.0241 13.6357 14.9207 13.0742 16.0428C12.5128 17.1649 12.3516 18.4452 12.6172 19.6714C12.8824 20.8973 13.5602 21.995 14.5372 22.7814C15.1442 23.2693 15.8478 23.6228 16.6016 23.8185C17.3554 24.0143 18.1421 24.0478 18.9098 23.9169C19.6775 23.786 20.4086 23.4936 21.0549 23.0591C21.7012 22.6246 22.2479 22.0579 22.6589 21.3964C23.0699 20.735 23.3359 19.9938 23.4391 19.2219C23.5424 18.45 23.4806 17.665 23.258 16.9187C23.0353 16.1725 22.6568 15.482 22.1474 14.8929C21.6381 14.3038 21.0095 13.8295 20.3032 13.5014C20.1828 13.4457 20.0894 13.3445 20.0437 13.22C19.9979 13.0954 20.0035 12.9578 20.0592 12.8374C20.1149 12.717 20.2161 12.6237 20.3407 12.5779C20.4652 12.5321 20.6028 12.5377 20.7232 12.5934C22.0705 13.2125 23.1647 14.275 23.8232 15.6034C24.4816 16.9316 24.6665 18.4448 24.3473 19.8925C24.0282 21.3401 23.2241 22.6353 22.0682 23.5634C20.9114 24.4896 19.4733 24.9934 17.9914 24.9916C16.5096 24.9898 15.0727 24.4824 13.9182 23.5534C12.7668 22.6191 11.9665 21.3217 11.6482 19.8734C11.3334 18.4237 11.5239 16.9099 12.1882 15.5834C12.8491 14.2556 13.9474 13.1961 15.2982 12.5834C15.3579 12.5561 15.4225 12.5408 15.4882 12.5384C15.5538 12.536 15.6193 12.5466 15.6809 12.5695C15.7425 12.5924 15.7989 12.6273 15.847 12.6721C15.8951 12.7168 15.9339 12.7706 15.9612 12.8304L15.9512 12.8384Z"
        fill="#F50025"
    />
</svg>
